<svg width="512" height="623" viewBox="0 0 512 623" fill="none" xmlns="http://www.w3.org/2000/svg">
<path d="M135.781 575.188L136.062 579.094C138.479 576.073 141.719 574.562 145.781 574.562C149.365 574.562 152.031 575.615 153.781 577.719C155.531 579.823 156.427 582.969 156.469 587.156V609H147.438V587.375C147.438 585.458 147.021 584.073 146.188 583.219C145.354 582.344 143.969 581.906 142.031 581.906C139.49 581.906 137.583 582.99 136.312 585.156V609H127.281V575.188H135.781Z" fill="black" fill-opacity="0.4"/>
<path d="M161.938 591.781C161.938 588.427 162.583 585.438 163.875 582.812C165.167 580.188 167.021 578.156 169.438 576.719C171.875 575.281 174.698 574.562 177.906 574.562C182.469 574.562 186.188 575.958 189.062 578.75C191.958 581.542 193.573 585.333 193.906 590.125L193.969 592.438C193.969 597.625 192.521 601.792 189.625 604.938C186.729 608.062 182.844 609.625 177.969 609.625C173.094 609.625 169.198 608.062 166.281 604.938C163.385 601.812 161.938 597.562 161.938 592.188V591.781ZM170.969 592.438C170.969 595.646 171.573 598.104 172.781 599.812C173.99 601.5 175.719 602.344 177.969 602.344C180.156 602.344 181.865 601.51 183.094 599.844C184.323 598.156 184.938 595.469 184.938 591.781C184.938 588.635 184.323 586.198 183.094 584.469C181.865 582.74 180.135 581.875 177.906 581.875C175.698 581.875 173.99 582.74 172.781 584.469C171.573 586.177 170.969 588.833 170.969 592.438Z" fill="black" fill-opacity="0.4"/>
<path d="M225 609H215.938V575.188H225V609ZM215.406 566.438C215.406 565.083 215.854 563.969 216.75 563.094C217.667 562.219 218.906 561.781 220.469 561.781C222.01 561.781 223.24 562.219 224.156 563.094C225.073 563.969 225.531 565.083 225.531 566.438C225.531 567.812 225.062 568.938 224.125 569.812C223.208 570.688 221.99 571.125 220.469 571.125C218.948 571.125 217.719 570.688 216.781 569.812C215.865 568.938 215.406 567.812 215.406 566.438Z" fill="black" fill-opacity="0.4"/>
<path d="M240.938 575.188L241.219 578.969C243.615 576.031 246.854 574.562 250.938 574.562C255.292 574.562 258.281 576.281 259.906 579.719C262.281 576.281 265.667 574.562 270.062 574.562C273.729 574.562 276.458 575.635 278.25 577.781C280.042 579.906 280.938 583.115 280.938 587.406V609H271.875V587.438C271.875 585.521 271.5 584.125 270.75 583.25C270 582.354 268.677 581.906 266.781 581.906C264.073 581.906 262.198 583.198 261.156 585.781L261.188 609H252.156V587.469C252.156 585.51 251.771 584.094 251 583.219C250.229 582.344 248.917 581.906 247.062 581.906C244.5 581.906 242.646 582.969 241.5 585.094V609H232.469V575.188H240.938Z" fill="black" fill-opacity="0.4"/>
<path d="M307.5 609C307.083 608.188 306.781 607.177 306.594 605.969C304.406 608.406 301.562 609.625 298.062 609.625C294.75 609.625 292 608.667 289.812 606.75C287.646 604.833 286.562 602.417 286.562 599.5C286.562 595.917 287.885 593.167 290.531 591.25C293.198 589.333 297.042 588.365 302.062 588.344H306.219V586.406C306.219 584.844 305.812 583.594 305 582.656C304.208 581.719 302.948 581.25 301.219 581.25C299.698 581.25 298.5 581.615 297.625 582.344C296.771 583.073 296.344 584.073 296.344 585.344H287.312C287.312 583.385 287.917 581.573 289.125 579.906C290.333 578.24 292.042 576.938 294.25 576C296.458 575.042 298.938 574.562 301.688 574.562C305.854 574.562 309.156 575.615 311.594 577.719C314.052 579.802 315.281 582.74 315.281 586.531V601.188C315.302 604.396 315.75 606.823 316.625 608.469V609H307.5ZM300.031 602.719C301.365 602.719 302.594 602.427 303.719 601.844C304.844 601.24 305.677 600.438 306.219 599.438V593.625H302.844C298.323 593.625 295.917 595.188 295.625 598.312L295.594 598.844C295.594 599.969 295.99 600.896 296.781 601.625C297.573 602.354 298.656 602.719 300.031 602.719Z" fill="black" fill-opacity="0.4"/>
<path d="M320.906 591.844C320.906 586.656 322.135 582.479 324.594 579.312C327.073 576.146 330.406 574.562 334.594 574.562C338.302 574.562 341.188 575.833 343.25 578.375L343.625 575.188H351.812V607.875C351.812 610.833 351.135 613.406 349.781 615.594C348.448 617.781 346.562 619.448 344.125 620.594C341.688 621.74 338.833 622.312 335.562 622.312C333.083 622.312 330.667 621.812 328.312 620.812C325.958 619.833 324.177 618.562 322.969 617L326.969 611.5C329.219 614.021 331.948 615.281 335.156 615.281C337.552 615.281 339.417 614.635 340.75 613.344C342.083 612.073 342.75 610.26 342.75 607.906V606.094C340.667 608.448 337.927 609.625 334.531 609.625C330.469 609.625 327.177 608.042 324.656 604.875C322.156 601.688 320.906 597.469 320.906 592.219V591.844ZM329.938 592.5C329.938 595.562 330.552 597.969 331.781 599.719C333.01 601.448 334.698 602.312 336.844 602.312C339.594 602.312 341.562 601.281 342.75 599.219V585C341.542 582.938 339.594 581.906 336.906 581.906C334.74 581.906 333.031 582.792 331.781 584.562C330.552 586.333 329.938 588.979 329.938 592.5Z" fill="black" fill-opacity="0.4"/>
<path d="M374.344 609.625C369.385 609.625 365.344 608.104 362.219 605.062C359.115 602.021 357.562 597.969 357.562 592.906V592.031C357.562 588.635 358.219 585.604 359.531 582.938C360.844 580.25 362.698 578.188 365.094 576.75C367.51 575.292 370.26 574.562 373.344 574.562C377.969 574.562 381.604 576.021 384.25 578.938C386.917 581.854 388.25 585.99 388.25 591.344V595.031H366.719C367.01 597.24 367.885 599.01 369.344 600.344C370.823 601.677 372.688 602.344 374.938 602.344C378.417 602.344 381.135 601.083 383.094 598.562L387.531 603.531C386.177 605.448 384.344 606.948 382.031 608.031C379.719 609.094 377.156 609.625 374.344 609.625ZM373.312 581.875C371.521 581.875 370.062 582.479 368.938 583.688C367.833 584.896 367.125 586.625 366.812 588.875H379.375V588.156C379.333 586.156 378.792 584.615 377.75 583.531C376.708 582.427 375.229 581.875 373.312 581.875Z" fill="black" fill-opacity="0.4"/>
<path d="M177.28 170.827C160.62 170.827 147.066 187.182 147.066 207.284C147.066 227.386 160.62 243.74 177.28 243.74C193.94 243.74 207.494 227.386 207.494 207.284C207.494 187.182 193.94 170.827 177.28 170.827ZM177.28 228.715C169.047 228.715 162.091 218.9 162.091 207.284C162.091 195.666 169.047 185.852 177.28 185.852C185.513 185.852 192.469 195.667 192.469 207.284C192.469 218.901 185.513 228.715 177.28 228.715Z" fill="black" fill-opacity="0.4"/>
<path d="M334.861 170.827C318.201 170.827 304.647 187.182 304.647 207.284C304.647 227.386 318.201 243.74 334.861 243.74C351.521 243.74 365.075 227.386 365.075 207.284C365.075 187.182 351.521 170.827 334.861 170.827ZM334.859 228.715C326.626 228.715 319.67 218.899 319.67 207.284C319.67 195.666 326.626 185.852 334.859 185.852C343.092 185.852 350.048 195.667 350.048 207.284C350.048 218.901 343.092 228.715 334.859 228.715Z" fill="black" fill-opacity="0.4"/>
<path d="M260.995 323.002C243.629 326.874 227.928 334.46 217.918 343.816C212.967 348.443 216.248 356.817 223.05 356.817C224.887 356.817 226.729 356.147 228.178 354.793C251.213 333.265 302.252 329.544 314.374 343.76C317.067 346.917 321.808 347.294 324.965 344.602C336.332 334.91 309.077 312.284 260.995 323.002Z" fill="black" fill-opacity="0.4"/>
<path d="M414.553 54.965C411.295 52.398 406.572 52.958 404.003 56.216C401.436 59.474 401.995 64.198 405.254 66.766C538.801 171.999 524.036 379.426 376.518 464.596C298.703 509.524 203.135 507.564 127.114 459.484C123.608 457.267 118.968 458.311 116.749 461.818C114.531 465.325 115.576 469.966 119.083 472.183C198.402 522.347 299.917 526.172 384.031 477.607C540.7 387.156 556.488 166.805 414.553 54.965Z" fill="black" fill-opacity="0.4"/>
<path d="M384.659 34.661C239.462 -49.526 52.647 26.364 8.87201 189.74C-17.699 288.905 17.671 389.09 89.995 450.755C91.409 451.961 93.142 452.551 94.865 452.551C101.836 452.551 105.032 443.832 99.743 439.322C-26.638 331.565 -8.56599 130.603 135.623 47.357C210.727 3.99702 302.6 4.45103 377.124 47.66C380.711 49.741 385.312 48.519 387.391 44.928C389.472 41.339 388.249 36.742 384.659 34.661Z" fill="black" fill-opacity="0.4"/>
</svg>
